<svg width="144" height="144" viewBox="0 0 144 144" fill="none" xmlns="http://www.w3.org/2000/svg">
<path d="M119.498 144C106.268 144 95.8548 132.696 95.8548 119.232C95.8548 105.955 85.1382 95.2004 71.9079 95.2004C58.6777 95.2004 47.9611 84.5324 47.9611 71.1692C47.9611 58.2389 58.2806 47.4266 71.7485 47.1809C87.1903 46.8991 95.7131 37.8324 95.9907 23.3447C96.2356 10.5666 106.758 0 119.988 0C132.721 0 143.529 10.0576 143.985 23.099C144.475 37.1058 133.456 47.9181 119.988 48.1638C106.76 48.4052 95.8548 57.8923 95.8548 71.1692C95.8548 84.4461 106.513 95.8362 119.743 95.8362C132.974 95.8362 143.741 106.352 143.741 119.427C143.978 133.628 132.729 144 119.498 144Z" fill="url(#paint0_linear_2_1700)"/>
<path d="M23.9468 143.898C10.7165 143.898 0 133.144 0 119.867C0 106.59 10.7165 95.8359 23.9468 95.8359C37.1771 95.8359 47.8936 106.59 47.8936 119.867C47.8936 133.144 37.1771 143.898 23.9468 143.898Z" fill="url(#paint1_linear_2_1700)"/>
<path d="M23.9468 143.898C10.7165 143.898 0 133.144 0 119.867C0 106.59 10.7165 95.8359 23.9468 95.8359C37.1771 95.8359 47.8936 106.59 47.8936 119.867C47.8936 133.144 37.1771 143.898 23.9468 143.898Z" fill="url(#paint2_linear_2_1700)"/>
<defs>
<linearGradient id="paint0_linear_2_1700" x1="192.422" y1="25.3589" x2="-42.1551" y2="314.019" gradientUnits="userSpaceOnUse">
<stop stop-color="#FCEF42"/>
<stop offset="0.04" stop-color="#FCE435"/>
<stop offset="0.12" stop-color="#FCD423"/>
<stop offset="0.2" stop-color="#FCCA17"/>
<stop offset="0.28" stop-color="#FDC714"/>
<stop offset="0.67" stop-color="#F29040"/>
<stop offset="0.89" stop-color="#ED693C"/>
<stop offset="1" stop-color="#E74039"/>
</linearGradient>
<linearGradient id="paint1_linear_2_1700" x1="161.145" y1="6.48243" x2="-73.9616" y2="199.381" gradientUnits="userSpaceOnUse">
<stop stop-color="#FCEF42"/>
<stop offset="0.04" stop-color="#FCE435"/>
<stop offset="0.12" stop-color="#FCD423"/>
<stop offset="0.2" stop-color="#FCCA17"/>
<stop offset="0.28" stop-color="#FDC714"/>
<stop offset="0.67" stop-color="#F29040"/>
<stop offset="0.89" stop-color="#ED693C"/>
<stop offset="1" stop-color="#E74039"/>
</linearGradient>
<linearGradient id="paint2_linear_2_1700" x1="161.145" y1="6.48243" x2="-73.9616" y2="199.381" gradientUnits="userSpaceOnUse">
<stop stop-color="#FCEF42"/>
<stop offset="0.04" stop-color="#FCE435"/>
<stop offset="0.12" stop-color="#FCD423"/>
<stop offset="0.2" stop-color="#FCCA17"/>
<stop offset="0.28" stop-color="#FDC714"/>
<stop offset="0.67" stop-color="#F29040"/>
<stop offset="0.89" stop-color="#ED693C"/>
<stop offset="1" stop-color="#E74039"/>
</linearGradient>
</defs>
</svg>
